HIERARCHY
ROOT Hips
{
    OFFSET 0.000000 0.000000 0.000000
    CHANNELS 6 Xposition Yposition Zposition Zrotation Xrotation Yrotation
    JOINT Spine
    {
        OFFSET -0.000000 8.505030 0.000000
        CHANNELS 3 Zrotation Xrotation Yrotation
        JOINT Spine1
        {
            OFFSET -0.000000 25.070629 0.000000
            CHANNELS 3 Zrotation Xrotation Yrotation
            JOINT Neck
            {
                OFFSET -0.000000 24.967667 2.269788
                CHANNELS 3 Zrotation Xrotation Yrotation
                JOINT Head
                {
                    OFFSET -0.000000 14.520781 -2.074397
                    CHANNELS 3 Zrotation Xrotation Yrotation
                    End Site
                    {
                        OFFSET -0.000000 25.929966 0.000000
                    }
                }
            }
            JOINT LeftShoulder
            {
                OFFSET 4.117346 22.983784 -0.389865
                CHANNELS 3 Zrotation Xrotation Yrotation
                JOINT LeftArm
                {
                    OFFSET 11.957758 0.000000 0.000000
                    CHANNELS 3 Zrotation Xrotation Yrotation
                    JOINT LeftForeArm
                    {
                        OFFSET 31.907600 0.000000 0.000000
                        CHANNELS 3 Zrotation Xrotation Yrotation
                        JOINT LeftHand
                        {
                            OFFSET 28.601147 0.000000 0.000000
                            CHANNELS 3 Zrotation Xrotation Yrotation
                            End Site
                            {
                                OFFSET 15.557981 0.000000 0.000000
                            }
                        }
                    }
                }
            }
            JOINT RightShoulder
            {
                OFFSET -4.061940 22.983784 -0.389865
                CHANNELS 3 Zrotation Xrotation Yrotation
                JOINT RightArm
                {
                    OFFSET -11.957758 0.000000 0.000000
                    CHANNELS 3 Zrotation Xrotation Yrotation
                    JOINT RightForeArm
                    {
                        OFFSET -31.907600 0.000000 0.000000
                        CHANNELS 3 Zrotation Xrotation Yrotation
                        JOINT RightHand
                        {
                            OFFSET -28.601147 0.000000 0.000000
                            CHANNELS 3 Zrotation Xrotation Yrotation
                            End Site
                            {
                                OFFSET -15.557981 0.000000 0.000000
                            }
                        }
                    }
                }
            }
        }
    }
    JOINT LeftUpLeg
    {
        OFFSET 10.371986 0.000000 0.000000
        CHANNELS 3 Zrotation Xrotation Yrotation
        JOINT LeftLeg
        {
            OFFSET -0.000000 -42.486427 0.000000
            CHANNELS 3 Zrotation Xrotation Yrotation
            JOINT LeftFoot
            {
                OFFSET -0.000000 -48.322342 0.000000
                CHANNELS 3 Zrotation Xrotation Yrotation
                JOINT LeftToeBase
                {
                    OFFSET -0.000000 -6.741791 15.557981
                    CHANNELS 3 Zrotation Xrotation Yrotation
                    End Site
                    {
                        OFFSET -0.000000 0.000000 4.148795
                    }
                }
            }
        }
    }
    JOINT RightUpLeg
    {
        OFFSET -10.371986 0.000000 0.000000
        CHANNELS 3 Zrotation Xrotation Yrotation
        JOINT RightLeg
        {
            OFFSET -0.000000 -42.486427 0.000000
            CHANNELS 3 Zrotation Xrotation Yrotation
            JOINT RightFoot
            {
                OFFSET -0.000000 -48.322342 0.000000
                CHANNELS 3 Zrotation Xrotation Yrotation
                JOINT RightToeBase
                {
                    OFFSET -0.000000 -6.741791 15.557981
                    CHANNELS 3 Zrotation Xrotation Yrotation
                    End Site
                    {
                        OFFSET -0.000000 0.000000 4.148795
                    }
                }
            }
        }
    }
}
MOTION
Frames:    13
Frame Time:    0.008333
58.268707    99.258064    33.814358    -0.917599    -1.244816    90.004990    1.193707    -6.742003    1.147671    1.743501    -7.786095    1.196072    -2.204448    32.816990    -5.436886    5.236032    -1.697058    -5.200967    13.330530    0.057410    -13.280141    -14.056737    -5.149053    -0.773340    -5.779639    -2.439561    32.477089    0.171068    -0.750769    2.687176    -14.595525    2.614071    -8.253850    19.187283    -4.768824    18.689890    6.030872    5.978104    -21.626160    -2.215469    7.314292    -9.909725    4.911695    9.775784    2.002920    -2.009192    -6.012410    4.561733    -5.846216    -0.733883    7.685545    0.000000    0.000000    0.000000    -1.420457    9.673268    4.781215    1.168370    -7.568077    -0.566505    5.450897    0.464051    -14.488314    0.000000    0.000000    0.000000    
58.265316    99.257065    33.814812    -0.920698    -1.246292    90.007545    1.200913    -6.742209    1.140669    1.743582    -7.773796    1.188369    -2.265060    32.813744    -5.417266    5.253785    -1.694371    -5.187773    13.306854    0.041215    -13.266565    -14.039950    -5.143685    -0.760900    -5.789440    -2.428764    32.468979    0.199433    -0.736932    2.709198    -14.619872    2.593133    -8.244852    19.213346    -4.755467    18.684166    6.022609    5.984036    -21.610149    -2.234662    7.319641    -9.921390    4.913574    9.768686    1.994768    -2.008963    -6.005742    4.527498    -5.839065    -0.745847    7.730145    0.000000    0.000000    0.000000    -1.420818    9.671095    4.799772    1.170268    -7.571115    -0.585710    5.446757    0.462723    -14.488467    0.000000    0.000000    0.000000    
58.262211    99.257683    33.815170    -0.925825    -1.242991    90.014687    1.208756    -6.746900    1.142415    1.708686    -7.767005    1.187176    -2.116318    32.693455    -5.431979    5.054816    -1.513319    -5.214941    13.339472    0.060240    -13.274471    -14.053670    -5.181753    -0.776119    -5.809412    -2.397871    32.505226    0.242650    -0.697250    2.652140    -14.588339    2.594779    -8.252263    19.210464    -4.737944    18.679476    6.014665    5.978967    -21.595335    -2.276377    7.316211    -9.938366    4.909916    9.758609    1.992312    -2.004790    -6.007504    4.554157    -5.857286    -0.735574    7.698819    0.000000    0.000000    0.000000    -1.421828    9.658280    4.759729    1.171596    -7.558342    -0.555103    5.471979    0.449460    -14.486959    0.000000    0.000000    0.000000    
58.258820    99.257294    33.817207    -0.925983    -1.242648    90.019432    1.200516    -6.746120    1.138075    1.722428    -7.755144    1.184084    -2.239510    32.820965    -5.430810    5.180868    -1.689757    -5.209459    13.328181    0.050400    -13.261681    -14.060608    -5.169986    -0.790761    -5.790905    -2.405050    32.499279    0.243074    -0.709942    2.719123    -14.592283    2.590228    -8.253175    19.216864    -4.740982    18.684938    6.016408    5.999293    -21.597488    -2.296630    7.338574    -9.932756    4.911355    9.753596    2.008670    -2.007145    -6.004834    4.562075    -5.850889    -0.739487    7.670555    0.000000    0.000000    0.000000    -1.420286    9.663929    4.838414    1.161132    -7.572492    -0.644828    5.427469    0.461667    -14.475474    0.000000    0.000000    0.000000    
58.257271    99.255852    33.819473    -0.924821    -1.248465    90.023079    1.201108    -6.734422    1.135511    1.728597    -7.773785    1.182324    -2.276123    32.769691    -5.476965    5.194910    -1.546762    -5.266533    13.311182    0.074460    -13.277578    -14.049131    -5.172618    -0.782802    -5.811876    -2.396451    32.505157    0.458832    -0.689541    2.795681    -14.587580    2.591362    -8.233486    19.211786    -4.723166    18.663218    6.021291    5.997831    -21.586903    -2.360464    7.342763    -9.922860    4.920271    9.750092    2.006196    -2.006899    -5.998056    4.541060    -5.833905    -0.748849    7.686878    0.000000    0.000000    0.000000    -1.410534    9.660021    4.794754    1.164699    -7.569072    -0.610572    5.435500    0.463034    -14.468581    0.000000    0.000000    0.000000    
58.251999    99.257614    33.819069    -0.931612    -1.242719    90.028603    1.186659    -6.731510    1.135227    1.737130    -7.776311    1.183488    -2.274147    32.782040    -5.481537    5.176185    -1.560436    -5.273582    13.307265    0.061977    -13.280018    -14.064051    -5.155017    -0.785903    -5.815698    -2.389924    32.510780    0.485067    -0.680987    2.791819    -14.586840    2.595303    -8.248010    19.221184    -4.722995    18.668205    6.015207    6.001858    -21.571129    -2.364628    7.345354    -9.932911    4.913881    9.731380    2.009984    -2.007762    -5.983011    4.547896    -5.841073    -0.744316    7.674378    0.000000    0.000000    0.000000    -1.415442    9.648392    4.811794    1.161213    -7.559144    -0.638512    5.410905    0.460553    -14.462122    0.000000    0.000000    0.000000    
58.228279    99.266800    33.823330    -0.993498    -1.242927    90.036232    1.165290    -6.780092    1.132489    1.765800    -7.762276    1.183286    -2.272978    32.854736    -5.440823    5.160830    -1.710875    -5.228440    13.297243    0.035200    -13.266407    -14.072974    -5.134747    -0.804389    -5.824738    -2.394519    32.519386    0.500084    -0.682135    2.799142    -14.620891    2.573572    -8.251090    19.247665    -4.696360    18.655394    6.013901    5.984645    -21.558468    -2.387935    7.329005    -9.920675    4.917133    9.637288    2.035395    -2.009252    -5.957703    4.535834    -5.848293    -0.725235    7.659054    0.000000    0.000000    0.000000    -1.410083    9.559079    4.791295    1.160364    -7.532338    -0.608883    5.426775    0.468822    -14.474164    0.000000    0.000000    0.000000    
58.224617    99.265839    33.825539    -0.992489    -1.245464    90.041153    1.169183    -6.764364    1.135224    1.741568    -7.777444    1.184530    -2.248083    32.882626    -5.438774    5.165478    -1.728726    -5.221342    13.321609    0.052015    -13.279424    -14.084282    -5.146453    -0.806568    -5.826855    -2.396350    32.519833    0.508695    -0.682965    2.830229    -14.592680    2.592613    -8.251268    19.255466    -4.723878    18.637520    6.007775    5.993212    -21.533249    -2.374493    7.333242    -9.891227    4.924655    9.636161    2.028487    -2.014602    -5.957589    4.535583    -5.844556    -0.730556    7.670722    0.000000    0.000000    0.000000    -1.405368    9.558448    4.792482    1.162969    -7.534975    -0.613447    5.443377    0.467988    -14.490620    0.000000    0.000000    0.000000    
58.242203    99.255013    33.822365    -0.936731    -1.247140    90.044952    1.170447    -6.737106    1.136120    1.748261    -7.733174    1.185419    -2.293617    32.894428    -5.434559    5.207533    -1.754327    -5.217036    13.309127    0.031405    -13.273850    -14.089848    -5.148537    -0.813325    -5.825257    -2.392863    32.522545    0.522238    -0.679358    2.831869    -14.617029    2.577453    -8.268427    19.282137    -4.716929    18.642216    6.009183    5.985539    -21.516846    -2.390125    7.325897    -9.871702    4.924854    9.719913    2.003474    -2.011479    -5.990391    4.544864    -5.834384    -0.745629    7.670072    0.000000    0.000000    0.000000    -1.409230    9.642056    4.826433    1.161686    -7.567935    -0.670260    5.419421    0.459599    -14.466323    0.000000    0.000000    0.000000    
58.217323    99.264168    33.825581    -1.004632    -1.238614    90.049591    1.155793    -6.775116    1.132014    1.740042    -7.761086    1.181616    -2.298292    32.891079    -5.430630    5.219214    -1.724479    -5.213126    13.316051    0.038695    -13.271137    -14.094458    -5.141972    -0.817820    -5.828545    -2.401213    32.520832    0.562235    -0.685657    2.875618    -14.615398    2.585156    -8.256434    19.308908    -4.725273    18.628378    5.997094    5.961892    -21.498346    -2.483175    7.305111    -9.783796    4.917888    9.616281    2.027462    -2.013741    -5.952017    4.508143    -5.847523    -0.732315    7.688713    0.000000    0.000000    0.000000    -1.411689    9.535867    4.763757    1.168436    -7.521142    -0.602670    5.423146    0.464974    -14.478914    0.000000    0.000000    0.000000    
58.211906    99.263611    33.827801    -1.012765    -1.243573    90.047646    1.164735    -6.770919    1.134570    1.723292    -7.772104    1.182721    -2.312243    32.913853    -5.420143    5.252856    -1.743757    -5.198929    13.319763    0.035859    -13.270098    -14.090427    -5.150989    -0.815813    -5.825477    -2.397544    32.523300    0.443629    -0.685844    2.821261    -14.609821    2.575416    -8.260978    19.320986    -4.704189    18.622503    6.000294    5.945499    -21.479244    -2.498322    7.289282    -9.769100    4.919923    9.601702    2.036742    -2.006522    -5.947446    4.513169    -5.856633    -0.729158    7.675056    0.000000    0.000000    0.000000    -1.404769    9.516790    4.755993    1.166901    -7.509261    -0.582065    5.423131    0.461143    -14.488541    0.000000    0.000000    0.000000    
58.208836    99.263657    33.828556    -1.014939    -1.248810    90.056206    1.165304    -6.764090    1.129427    1.729167    -7.787262    1.178245    -2.327273    32.955376    -5.419832    5.248736    -1.781814    -5.201042    13.306655    0.046607    -13.274676    -14.087415    -5.165304    -0.810405    -5.809290    -2.428615    32.545048    0.259796    -0.725302    2.701343    -14.624302    2.598944    -8.259354    19.349688    -4.693320    18.628902    5.982237    5.911717    -21.461334    -2.523743    7.252662    -9.736793    4.929660    9.600731    2.024205    -2.012283    -5.956812    4.513944    -5.841403    -0.727342    7.677427    0.000000    0.000000    0.000000    -1.397724    9.513893    4.755051    1.166297    -7.510360    -0.589289    5.424079    0.466389    -14.490323    0.000000    0.000000    0.000000    
58.203484    99.265099    33.828934    -1.021219    -1.247580    90.056572    1.164940    -6.771619    1.132019    1.713385    -7.773593    1.179482    -2.335583    32.963634    -5.418787    5.281035    -1.799553    -5.195682    13.324765    0.028796    -13.282574    -14.088567    -5.218348    -0.808403    -5.786226    -2.437980    32.540966    0.209732    -0.742761    2.758009    -14.617088    2.594670    -8.274283    19.370909    -4.723408    18.632383    5.992414    5.914918    -21.437710    -2.565125    7.259792    -9.728063    4.928504    9.589722    2.027485    -2.011915    -5.952563    4.512882    -5.838116    -0.725268    7.676017    0.000000    0.000000    0.000000    -1.400786    9.502752    4.766066    1.167622    -7.504939    -0.582945    5.420616    0.461469    -14.507252    0.000000    0.000000    0.000000    
